<?xml version="1.0" standalone="no"?>
<!DOCTYPE svg PUBLIC "-//W3C//DTD SVG 20010904//EN"
 "http://www.w3.org/TR/2001/REC-SVG-20010904/DTD/svg10.dtd">
<svg version="1.0" xmlns="http://www.w3.org/2000/svg"
 width="512.000000pt" height="512.000000pt" viewBox="0 0 512.000000 512.000000"
 preserveAspectRatio="xMidYMid meet">
<metadata>
Created by potrace 1.14, written by Peter Selinger 2001-2017
</metadata>
<g transform="translate(0.000000,512.000000) scale(0.100000,-0.100000)"
fill="#000000" stroke="none">
<path d="M233 5094 c-12 -13 -23 -27 -24 -31 0 -4 -1 -179 -2 -388 l-2 -380
-82 -5 c-113 -8 -145 -40 -112 -114 13 -28 46 -39 124 -42 28 -1 55 -2 61 -3
11 -1 16 -660 5 -662 -3 -1 -37 -2 -74 -4 -37 -1 -79 -8 -93 -15 -46 -25 -43
-102 6 -127 14 -7 57 -13 96 -13 l71 0 -1 -329 c-1 -181 -4 -333 -8 -337 -4
-3 -34 -7 -66 -6 -75 0 -119 -18 -128 -54 -17 -69 29 -102 142 -103 l60 -1 0
-332 -1 -333 -84 -5 c-73 -5 -86 -9 -103 -30 -24 -29 -19 -85 9 -106 18 -13
28 -15 113 -19 25 -1 50 -3 56 -4 7 -1 10 -102 10 -333 l-1 -332 -66 -1 c-103
-1 -138 -24 -139 -88 0 -10 11 -29 25 -42 21 -22 33 -25 103 -25 l78 0 1 -392
0 -392 26 -22 25 -21 2084 -1 c1365 -1 2092 3 2109 9 36 14 46 54 44 186 l-1
113 136 0 c74 0 155 5 179 11 137 31 251 138 293 274 5 16 11 149 13 295 6
356 -13 444 -114 547 -31 31 -38 44 -28 50 28 17 95 110 110 153 29 81 35 162
32 425 -3 238 -5 265 -25 317 -21 56 -97 162 -122 170 -7 3 5 20 30 42 23 21
53 62 67 91 46 98 53 163 50 449 -2 143 -6 274 -10 290 -11 54 -58 135 -101
178 l-43 43 38 40 c107 113 113 138 115 480 1 154 -2 300 -6 325 -13 74 -64
164 -119 214 -93 83 -152 102 -339 105 -80 2 -147 5 -150 7 -2 3 -5 61 -5 130
-1 115 -3 126 -23 147 l-23 22 -2096 1 -2096 2 -24 -24z m794 -138 c4 -3 7
-1082 7 -2397 1 -2116 -1 -2392 -14 -2398 -11 -5 -540 -7 -642 -2 -16 1 -17
27 -15 334 l2 332 83 5 c90 6 108 16 118 67 5 26 1 37 -19 57 -26 26 -34 28
-132 30 l-50 1 0 335 0 334 73 2 c47 1 81 8 97 18 49 32 42 106 -12 127 -16 6
-58 10 -95 10 l-67 0 1 334 c0 303 2 335 17 336 9 0 35 0 59 -1 89 -3 144 40
129 102 -11 43 -48 54 -194 58 -9 0 -11 85 -11 335 l0 335 69 0 c37 0 79 4 93
10 32 12 51 50 42 84 -10 41 -47 58 -130 60 l-74 1 0 335 0 335 75 1 c57 1 81
6 101 21 33 25 39 72 13 104 -17 21 -29 24 -104 27 l-85 4 0 336 -1 337 330
-1 c181 0 332 -4 336 -8z m3291 5 l22 -1 0 -2400 c0 -2279 -1 -2400 -17 -2401
-23 -1 -3116 -1 -3125 0 -8 1 -11 4794 -4 4802 3 3 3036 3 3124 0z m509 -332
c58 -26 110 -90 123 -153 8 -33 10 -146 8 -321 -3 -294 -4 -298 -64 -359 -60
-59 -95 -69 -251 -71 -99 -2 -143 1 -144 9 -1 6 -2 214 -3 463 l-1 452 60 3
c120 6 229 -3 272 -23z m-6 -1081 c44 -19 91 -64 116 -109 16 -30 18 -65 21
-321 3 -277 2 -288 -19 -338 -26 -62 -84 -113 -145 -130 -44 -13 -273 -18
-290 -7 -7 4 -12 884 -5 918 0 4 65 6 144 5 104 -2 152 -6 178 -18z m5 -1088
c49 -24 87 -63 113 -115 18 -37 20 -62 20 -325 0 -277 -1 -286 -23 -332 -29
-60 -78 -104 -135 -121 -27 -8 -94 -13 -175 -13 l-131 1 0 460 c0 437 1 460
18 465 10 3 75 4 145 2 102 -2 135 -6 168 -22z m6 -1088 c51 -25 94 -75 114
-131 17 -48 19 -556 2 -612 -15 -52 -68 -113 -121 -138 -37 -18 -65 -22 -185
-24 -89 -1 -142 2 -143 8 -3 24 -5 911 -2 917 2 3 67 5 146 4 125 -1 148 -5
189 -24z"/>
<path d="M3063 3764 c-101 -21 -182 -85 -230 -182 -24 -49 -28 -69 -28 -142 0
-71 4 -94 26 -140 101 -214 371 -259 531 -89 219 233 11 616 -299 553z m131
-158 c49 -20 93 -74 105 -126 11 -46 11 -57 -3 -100 -48 -144 -251 -162 -326
-28 -81 144 72 318 224 254z"/>
<path d="M2313 3341 c-208 -71 -294 -321 -172 -504 49 -74 156 -143 199 -129
28 9 60 46 60 69 0 39 -16 59 -74 91 -92 52 -125 140 -87 228 39 87 90 115
199 109 74 -4 83 -3 102 17 28 30 26 79 -4 107 -34 32 -148 38 -223 12z"/>
<path d="M2665 3147 c-50 -28 -88 -98 -114 -209 -17 -71 -19 -120 -19 -345 1
-208 4 -267 15 -283 20 -28 74 -38 191 -35 80 2 102 -1 103 -11 4 -59 3 -218
-2 -231 -5 -14 -52 -16 -437 -17 -280 -1 -433 3 -435 9 -2 6 -3 111 -2 235 1
207 3 229 23 273 12 26 30 61 42 76 41 59 10 131 -56 131 -99 0 -169 -192
-167 -460 3 -369 3 -364 23 -390 l19 -25 543 -1 c344 -1 551 2 565 9 12 5 25
17 29 26 4 9 9 94 10 189 1 95 5 176 9 180 4 4 147 8 318 8 383 2 352 0 377
26 19 21 20 34 20 297 0 300 -8 369 -54 459 -41 81 -94 110 -149 81 -46 -25
-49 -65 -10 -122 49 -71 61 -148 60 -379 l-1 -208 -438 0 -438 0 -1 38 c0 20
0 123 1 229 1 207 7 244 57 316 31 45 34 91 7 117 -24 24 -64 31 -89 17z"/>
<path d="M1863 1389 c-25 -9 -53 -47 -53 -72 0 -10 12 -31 28 -46 l27 -28 898
0 898 -1 25 21 c36 31 38 74 5 107 l-26 27 -890 0 c-490 0 -900 -3 -912 -8z"/>
</g>
</svg>
