<svg
  aria-hidden="true"
  style="position: absolute; width: 0; height: 0; overflow: hidden;"
  version="1.1"
  xmlns="http://www.w3.org/2000/svg"
  xmlns:xlink="http://www.w3.org/1999/xlink"
>
<defs>
<symbol id="contacts" viewBox="0 0 32 32">
<path stroke-width="0.5" d="M20.602 16.522c2.086 1.325 3.349 3.613 3.349 6.088 0 0.432-0.351 0.783-0.783 0.783h-12.86c-0.432 0-0.783-0.35-0.783-0.783 0-2.476 1.264-4.764 3.349-6.088-0.649-0.832-1.037-1.878-1.037-3.015 0-2.707 2.194-4.901 4.901-4.901s4.901 2.194 4.901 4.901c0 1.137-0.387 2.183-1.037 3.015zM3.024 8.545h-1.899c-1.030 0-1.030-1.566 0-1.566h1.899v-4.761c0-0.432 0.351-0.783 0.783-0.783h27.058c0.432 0 0.783 0.35 0.783 0.783v27.564c0 0.432-0.351 0.783-0.783 0.783h-27.058c-0.432 0-0.783-0.35-0.783-0.783v-4.761h-1.899c-1.030 0-1.030-1.566 0-1.566h1.899v-6.672h-1.899c-1.030 0-1.030-1.566 0-1.566h1.899v-6.672zM30.082 3.001h-25.492c0 8.666 0 17.333 0 25.999h25.492v-25.999zM14.079 17.625c-1.591 0.851-2.688 2.416-2.935 4.203h11.187c-0.247-1.787-1.344-3.352-2.935-4.203-0.766 0.495-1.679 0.783-2.659 0.783s-1.893-0.288-2.659-0.783zM16.737 10.172c-1.842 0-3.335 1.493-3.335 3.335s1.493 3.335 3.335 3.335c1.843 0 3.335-1.493 3.335-3.335s-1.493-3.335-3.335-3.335z"></path>
</symbol>
<symbol id="delete" viewBox="0 0 32 32">
<path d="M27.333 32h-22.667v-27.333h22.667v27.333zM6 30.667h20v-24.667h-20v24.667z"></path>
<path d="M23.333 6h-14.667v-5.333h14.667v5.333zM10 4.667h12v-2.667h-12v2.667z"></path>
<path d="M10.667 27.333c-0.369 0-0.667-0.298-0.667-0.667v-16.667c0-0.369 0.298-0.667 0.667-0.667s0.667 0.298 0.667 0.667v16.667c0 0.369-0.298 0.667-0.667 0.667z"></path>
<path d="M16 27.333c-0.369 0-0.667-0.298-0.667-0.667v-16.667c0-0.369 0.298-0.667 0.667-0.667s0.667 0.298 0.667 0.667v16.667c0 0.369-0.298 0.667-0.667 0.667z"></path>
<path d="M21.333 27.333c-0.369 0-0.667-0.298-0.667-0.667v-16.667c0-0.369 0.298-0.667 0.667-0.667s0.667 0.298 0.667 0.667v16.667c0 0.369-0.298 0.667-0.667 0.667z"></path>
<path d="M0 4.667h32v1.333h-32v-1.333z"></path>
</symbol>
<symbol id="edit" viewBox="0 0 32 32">
<path d="M5.628 8.96h14.080v1.28h-14.080v-1.28z"></path>
<path d="M5.628 12.8h14.080v1.28h-14.080v-1.28z"></path>
<path d="M5.628 16.64h10.88v1.28h-10.88v-1.28z"></path>
<path d="M5.628 20.48h7.68v1.28h-7.68v-1.28z"></path>
<path d="M5.628 24.32h7.68v1.28h-7.68v-1.28z"></path>
<path d="M24.828 11.895v-6.4l-4.855-4.855h-19.465v30.72h24.32v-11.255l6.665-6.665-4.105-4.105-2.56 2.56zM24.188 14.345l2.295 2.295-7.68 7.68h-2.295v-2.295l7.68-7.68zM20.348 2.825l2.295 2.295h-2.295v-2.295zM23.548 30.080h-21.76v-28.16h17.28v4.48h4.48v6.775l-8.32 8.32v4.105h4.105l4.215-4.215v8.695zM27.388 15.735l-2.295-2.295 2.295-2.295 2.295 2.295-2.295 2.295z"></path>
</symbol>
<symbol id="favorite" viewBox="0 0 32 32">
<path d="M16 24.035l9.417 5.679-2.491-10.711 8.312-7.203-10.958-0.94-4.28-10.098-4.28 10.098-10.958 0.94 8.312 7.203-2.491 10.711 9.417-5.679z"></path>
</symbol>
<symbol id="login" viewBox="0 0 32 32">
<path stroke-linecap="round" stroke-width="2" d="M29 16h-13"></path>
<path stroke-width="0" d="M24 25v3h-16v-24h16v3h2v-4c0-0.552-0.448-1-1-1v0h-18c-0.552 0-1 0.448-1 1v0 26c0 0.552 0.448 1 1 1v0h18c0.552 0 1-0.448 1-1v0-4z"></path>
<path stroke-linecap="round" stroke-width="2" d="M16 16l4-4"></path>
<path stroke-linecap="round" stroke-width="2" d="M16 16l4 4"></path>
<path stroke-width="2" d="M25 8v-2"></path>
<path stroke-width="2" d="M25 26v-2"></path>
</symbol>
<symbol id="logo" viewBox="0 0 32 32">
<path d="M32 7.272v-2.908c-0.001-1.339-1.086-2.424-2.424-2.425h-1.456v-1.456c0-0.267-0.217-0.484-0.484-0.484v0h-25.859c-0.267 0-0.484 0.217-0.484 0.484v0 4.686c-0.409 0.027-1.293-0.168-1.293 0.488s0.885 0.458 1.293 0.484v4.2c-0.409 0.027-1.293-0.168-1.293 0.485s0.885 0.46 1.293 0.489v4.203c-0.409 0.025-1.296-0.17-1.293 0.485s0.885 0.458 1.293 0.484v4.204c-0.409 0.025-1.296-0.17-1.293 0.484s0.885 0.458 1.293 0.484v4.204c-0.409 0.023-1.293-0.173-1.293 0.48s0.885 0.46 1.293 0.487v4.684c0 0 0 0.001 0 0.001 0 0.267 0.216 0.484 0.484 0.485h25.86c0.751-0.011 0.414-1.157 0.484-1.939h1.456c1.338-0.002 2.423-1.086 2.425-2.424v-0c-0.122-1.604 0.496-3.819-0.99-4.849 1.48-1.021 0.863-3.253 0.99-4.849-0.004-0.793-0.39-1.496-0.984-1.933l-0.007-0.005c1.48-1.023 0.863-3.246 0.99-4.849-0.004-0.794-0.39-1.497-0.984-1.935l-0.007-0.005c0.6-0.443 0.986-1.146 0.99-1.939v-0.001zM6.465 31.030h-4.201v-4.2c0.409-0.027 1.297 0.168 1.294-0.487s-0.887-0.458-1.294-0.484v-4.204c0.409-0.025 1.297 0.17 1.294-0.484s-0.887-0.458-1.294-0.484v-4.204c0.409-0.025 1.297 0.168 1.294-0.484s-0.887-0.46-1.294-0.485v-4.198c0.409-0.025 1.297 0.17 1.294-0.485s-0.887-0.46-1.294-0.485v-4.207c0.409-0.027 1.297 0.17 1.294-0.484s-0.887-0.46-1.294-0.485v-4.201h4.201zM27.151 31.030h-19.717v-30.061h19.717zM31.030 24.726v2.91c-0.001 0.803-0.651 1.453-1.454 1.454h-1.456v-5.818h1.456c0.803 0.001 1.453 0.651 1.454 1.454v0zM31.030 17.937v2.91c-0.001 0.803-0.651 1.453-1.454 1.454h-1.456v-5.817h1.456c0.803 0.001 1.453 0.651 1.454 1.454v0zM31.030 11.147v2.913c-0.001 0.803-0.651 1.454-1.454 1.456h-1.456v-5.818h1.456c0.803 0.001 1.453 0.651 1.454 1.454v0zM31.030 7.268c-0.001 0.803-0.651 1.453-1.454 1.454h-1.456v-5.814h1.456c0.803 0.001 1.454 0.652 1.454 1.456v0zM11.316 19.877c0.085-1.266-0.347-3.819 0.656-4.832 0.090-0.116 0.228-0.189 0.385-0.189 0.268 0 0.485 0.217 0.485 0.485 0 0.123-0.046 0.235-0.121 0.32l0-0.001c-0.271 0.325-0.436 0.747-0.436 1.208 0 0.003 0 0.007 0 0.010v-0.001 2.515h5.496v-1.617c-0.791-0.066-1.932 0.262-1.939-0.485 0.085-1.266-0.348-3.819 0.655-4.832 0.090-0.116 0.228-0.189 0.385-0.189 0.268 0 0.485 0.217 0.485 0.485 0 0.123-0.046 0.235-0.121 0.32l0-0.001c-0.271 0.326-0.436 0.749-0.436 1.211 0 0.002 0 0.005 0 0.007v-0 2.515h5.496c-0.078-0.881 0.283-3.041-0.436-3.733-0.069-0.083-0.11-0.191-0.11-0.308 0-0.151 0.068-0.285 0.176-0.374l0.001-0.001c0.912-0.502 1.335 1.249 1.338 1.901v2.999c0 0 0 0.001 0 0.001 0 0.267-0.217 0.484-0.484 0.484 0 0 0 0 0 0h-4.046v2.101c0 0 0 0.001 0 0.001 0 0.267-0.217 0.484-0.484 0.484-0 0-0.001 0-0.002 0h-6.464c-0.266-0.002-0.481-0.219-0.481-0.485 0 0 0 0 0-0v0zM19.559 12.605c1.137-0.030 2.047-0.96 2.047-2.101s-0.91-2.071-2.045-2.101l-0.003-0c-1.138 0.029-2.050 0.959-2.050 2.101 0 1.141 0.909 2.070 2.043 2.101l0.003 0zM19.559 9.373c0.625 0 1.132 0.507 1.132 1.132s-0.507 1.132-1.132 1.132v0c-0.001 0-0.001 0-0.002 0-0.625 0-1.132-0.507-1.132-1.132s0.505-1.13 1.129-1.132h0zM15.693 11.070c0.195 0.065 0.334 0.247 0.334 0.46 0 0.268-0.217 0.484-0.484 0.484-0.054 0-0.106-0.009-0.154-0.025l0.003 0.001c-0.106-0.036-0.227-0.057-0.354-0.057-0.625 0-1.132 0.507-1.132 1.132 0 0.499 0.323 0.923 0.771 1.073l0.008 0.002c0.196 0.066 0.334 0.247 0.334 0.461 0 0.268-0.217 0.485-0.485 0.485-0.054 0-0.106-0.009-0.155-0.025l0.003 0.001c-0.797-0.311-1.351-1.072-1.351-1.963 0-1.161 0.941-2.102 2.102-2.102 0.198 0 0.389 0.027 0.571 0.078l-0.015-0.004zM11.797 23.272h10.991c0.256 0.014 0.459 0.226 0.459 0.484s-0.203 0.47-0.458 0.484l-0.001 0h-10.991c-0.256-0.014-0.459-0.226-0.459-0.484s0.203-0.47 0.458-0.484l0.001-0z"></path>
</symbol>
<symbol id="logout" viewBox="0 0 32 32">
<path stroke-linecap="round" stroke-width="2" d="M15.92 16h13"></path>
<path stroke-width="0" d="M23.93 25v3h-16v-24h16v3h2v-4c0-0.552-0.448-1-1-1v0h-18c-0.552 0-1 0.448-1 1v0 26c0 0.552 0.448 1 1 1v0h18c0.552 0 1-0.448 1-1v0-4z"></path>
<path stroke-linecap="round" stroke-width="2" d="M28.92 16l-4 4"></path>
<path stroke-linecap="round" stroke-width="2" d="M28.92 16l-4-4"></path>
<path stroke-width="2" d="M24.92 8.090v-2"></path>
<path stroke-width="2" d="M24.92 26v-2"></path>
</symbol>
<symbol id="register" viewBox="0 0 32 32">
<path stroke-width="0.5" d="M29.68 4.176h-1.6v-1.6c0-0.4-0.32-0.72-0.72-0.72s-0.72 0.32-0.72 0.72v1.6h-1.6c-0.4 0-0.72 0.32-0.72 0.72s0.32 0.72 0.72 0.72h1.6v1.6c0 0.4 0.32 0.72 0.72 0.72s0.72-0.32 0.72-0.72v-1.616h1.6c0.4 0 0.72-0.32 0.72-0.72s-0.32-0.72-0.72-0.72v0 0.016z"></path>
<path stroke-width="0.5" d="M23.008 16c2.336-1.824 2.752-5.2 0.928-7.536-0.992-1.28-2.512-2.032-4.128-2.064-1.312 0-2.576 0.496-3.536 1.392-1.696-3.152-5.616-4.328-8.768-2.632s-4.328 5.616-2.632 8.76c0.52 0.96 1.272 1.784 2.192 2.376-3.168 0.928-5.464 3.584-5.464 6.72v6.4c0 0.4 0.32 0.72 0.72 0.72 0 0 0 0 0 0h16.704c0.4 0 0.72-0.32 0.72-0.72v0-1.296h6.832c0.4 0 0.72-0.32 0.72-0.72v0-5.56c-0.032-2.664-1.76-5.008-4.288-5.84zM19.808 7.8c2.168-0.040 3.952 1.672 4 3.84 0.040 2.168-1.672 3.952-3.84 4-1.432 0.032-2.768-0.728-3.48-1.968l0.040-0.112c0.064-0.136 0.12-0.272 0.176-0.408s0.104-0.32 0.152-0.48 0.040-0.128 0.056-0.2c0.136-0.512 0.208-1.032 0.208-1.56 0-0.344 0-0.672-0.048-1.008-0.032-0.208-0.072-0.416-0.128-0.616 0 0 0-0.064 0-0.088 0.712-0.88 1.776-1.392 2.904-1.4h-0.040zM15.528 16.8c-0.416-0.192-0.84-0.352-1.28-0.472 0.544-0.36 1.032-0.8 1.44-1.312 0.312 0.408 0.688 0.76 1.112 1.056-0.432 0.192-0.832 0.448-1.192 0.744l-0.080-0.016zM5.6 10.912c-0.008-2.776 2.248-5.032 5.024-5.040 2.152 0 4.072 1.36 4.768 3.4 0.192 0.528 0.288 1.080 0.288 1.64-0.008 0.544-0.096 1.088-0.272 1.6-0.632 1.872-2.448 3.424-4.496 3.424 0 0-0.592 0-0.592 0-2.648-0.168-4.72-2.368-4.72-5.024zM18.304 28.728h-15.264c0 0 0-5.712 0-5.712 0-1.168 0.432-2.304 1.168-3.208 0.776-0.952 1.848-1.64 3.016-2.024 0.712-0.232 1.464-0.328 2.208-0.36 0.768-0.032 1.56-0.080 2.328-0.016 0.4 0.032 0.8 0.112 1.192 0.192 0.416 0.088 0.824 0.192 1.224 0.312 0.2 0.056 0.392 0.128 0.592 0.192 0.576 0.2 1.088 0.496 1.576 0.864 0.304 0.232 0.528 0.504 0.792 0.768 0.216 0.216 0.384 0.536 0.512 0.808 0.208 0.424 0.304 0.888 0.408 1.344 0.176 0.792 0.256 1.592 0.256 2.408 0 0.544 0 1.088 0 1.632 0 0.92 0 1.832 0 2.752 0 0.024 0 0.056 0 0.080l-0.008-0.032zM25.856 26.68h-6.112v-3.664c0 0 0-0.048 0-0.072s0-0.144 0-0.224c-0.080-1.256-0.488-2.472-1.176-3.52-0.040-0.056-0.088-0.112-0.128-0.176-0.144-0.192-0.296-0.384-0.456-0.56l-0.040-0.048c-0.28-0.304-0.6-0.584-0.944-0.816 0.632-0.376 1.352-0.56 2.088-0.52h1.776c2.688-0.056 4.92 2.072 4.992 4.76v4.84z"></path>
</symbol>
<symbol id="add" viewBox="0 0 32 32">
<path stroke-width="0" d="M24 14.059v-8.475l-5.586-5.584h-18.414v32h24v-0.059c4.499-0.5 7.998-4.309 8-8.941-0.002-4.634-3.501-8.444-8-8.941zM17.998 2.413l3.588 3.587h-3.588v-3.587zM2 30v-28.002h14v6.001h6v6.060c-1.752 0.194-3.352 0.89-4.652 1.941h-13.348v2h11.517c-0.412 0.616-0.743 1.289-0.994 2h-10.523v2h10.059c-0.037 0.329-0.059 0.661-0.059 1 0 2.829 1.308 5.351 3.349 7h-15.349zM23 29.883c-3.801-0.009-6.876-3.084-6.885-6.883 0.009-3.801 3.084-6.876 6.885-6.885 3.799 0.009 6.874 3.084 6.883 6.885-0.009 3.799-3.084 6.874-6.883 6.883zM20 12h-16v2h16v-2z"></path>
<path stroke-width="0" d="M28 22h-3.998v-4h-2.002v4h-4v2h4v4h2.002v-4h3.998z"></path>
</symbol>
<symbol id="cleaner" viewBox="0 0 32 32">
<path d="M28.281 2.281l-10 10-1.281-1.281v-0.031l-0.031-0.031c-0.641-0.57-1.477-0.844-2.281-0.844s-1.582 0.301-2.188 0.906l-0.156 0.125-0.5 0.5-0.344 0.281-9.125 7.094-0.875 0.719 10.781 10.781 0.719-0.875 7.063-9.063 0.031 0.031 1-1h0.031l0.031-0.031c1.141-1.285 1.148-3.258-0.063-4.469l-1.375-1.375 10-10zM14.688 12.094c0.309-0.008 0.648 0.098 0.906 0.313 0.012 0.008 0.020 0.023 0.031 0.031l4.063 4.063c0.375 0.375 0.41 1.172 0 1.688-0.016 0.020-0.016 0.043-0.031 0.063l-0.313 0.281-5.781-5.781 0.344-0.344c0.191-0.191 0.473-0.305 0.781-0.313zM12.031 14.031l5.938 5.938-5.875 7.5-1.438-1.438 2.156-2.25-1.438-1.375-2.125 2.219-1.313-1.313 3.875-3.906-1.406-1.406-3.906 3.875-1.969-1.969z"></path>
</symbol>
<symbol id="home" viewBox="0 0 32 32">
<path stroke-width="0.5" d="M21.12 2.56v3.575l-5.12-5.12-15.172 15.172 0.905 0.905 0.828-0.828v15.095h26.88v-15.095l0.828 0.828 0.905-0.905-4.292-4.292v-9.335h-5.76zM22.4 3.84h3.2v6.775l-3.2-3.2v-3.575zM12.8 30.080v-10.24h6.4v10.24h-6.4zM28.16 30.080h-7.68v-11.52h-8.96v11.52h-7.68v-15.095l12.16-12.16 12.16 12.16v15.095z"></path>
</symbol>
</defs>
</svg>
